<svg width="324" height="38" fill="none" xmlns="http://www.w3.org/2000/svg"><rect x="67.5" y=".5" width="55" height="37" rx="3.5" fill="#fff" stroke="#F3F3F3"/><path d="M100.127 27.528h-9.994V9.987h9.994v17.54z" fill="#FF5F00"/><path d="M90.773 18.756c0-3.559 1.706-6.728 4.363-8.77a11.546 11.546 0 00-7.06-2.386c-6.307 0-11.42 4.995-11.42 11.156 0 6.16 5.113 11.155 11.42 11.155 2.665 0 5.117-.891 7.06-2.385-2.657-2.042-4.363-5.212-4.363-8.77" fill="#EB001B"/><path d="M113.606 18.756c0 6.16-5.113 11.155-11.421 11.155a11.55 11.55 0 01-7.06-2.385c2.657-2.042 4.363-5.212 4.363-8.77 0-3.559-1.706-6.728-4.363-8.77a11.55 11.55 0 017.06-2.386c6.308 0 11.421 4.995 11.421 11.156" fill="#F79E1B"/><rect x=".5" y=".5" width="55" height="37" rx="3.5" fill="#fff" stroke="#F3F3F3"/><path d="M24.864 26.062h-3.729l2.332-13.301h3.728l-2.331 13.3zM38.38 13.086a9.87 9.87 0 00-3.345-.566c-3.682 0-6.274 1.81-6.29 4.4-.03 1.91 1.856 2.971 3.267 3.608 1.443.651 1.933 1.076 1.933 1.656-.015.892-1.166 1.302-2.239 1.302-1.488 0-2.286-.212-3.498-.707l-.491-.213-.522 2.986c.875.367 2.486.694 4.158.708 3.912 0 6.46-1.783 6.49-4.543.014-1.514-.982-2.674-3.13-3.622-1.304-.608-2.103-1.019-2.103-1.642.016-.566.676-1.145 2.148-1.145a6.791 6.791 0 012.777.509l.337.141.507-2.872z" fill="#15195A"/><path fill-rule="evenodd" clip-rule="evenodd" d="M45.053 12.76h2.884l3.007 13.301h-3.452s-.337-1.528-.444-1.995H42.26l-.783 1.995h-3.912l5.538-12.197c.384-.863 1.06-1.103 1.949-1.103zm-.23 4.868s-1.181 2.957-1.489 3.722h3.1c-.154-.665-.86-3.85-.86-3.85l-.26-1.145c-.11.295-.269.7-.376.974a9.15 9.15 0 00-.115.3zM4.981 12.76h5.998c.814.029 1.473.27 1.688 1.119l1.304 6.111v.001l.399 1.84 3.651-9.07h3.943l-5.86 13.287H12.16L8.838 14.49c-1.147-.618-2.455-1.115-3.918-1.46l.061-.27z" fill="#15195A"/><rect x="134.5" y=".5" width="55" height="37" rx="3.5" fill="#fff" stroke="#F3F3F3"/><path fill-rule="evenodd" clip-rule="evenodd" d="M150.971 14.18c-.407.48-1.059.858-1.711.804-.081-.649.238-1.337.611-1.763.408-.493 1.12-.844 1.697-.871.068.675-.196 1.337-.597 1.83zm.591.932c-.575-.033-1.098.172-1.522.337-.272.107-.502.197-.678.197-.197 0-.437-.095-.707-.202-.353-.14-.757-.299-1.18-.291-.971.013-1.874.56-2.369 1.431-1.019 1.743-.265 4.323.719 5.741.482.702 1.059 1.472 1.82 1.445.334-.012.575-.114.824-.219.286-.121.584-.247 1.049-.247.449 0 .734.123 1.007.24.26.112.51.22.881.213.787-.014 1.283-.703 1.765-1.405.52-.754.748-1.49.783-1.601l.004-.013a.157.157 0 00-.019-.009c-.173-.08-1.502-.684-1.515-2.308-.013-1.362 1.054-2.052 1.222-2.16l.02-.014c-.679-1-1.738-1.108-2.104-1.135zm5.451 8.57V13.154h3.971c2.051 0 3.483 1.404 3.483 3.457s-1.459 3.472-3.537 3.472h-2.274v3.6h-1.643zm1.643-9.15h1.894c1.426 0 2.24.756 2.24 2.086 0 1.33-.814 2.094-2.247 2.094h-1.887v-4.18zm11.235 7.887c-.434.825-1.391 1.345-2.423 1.345-1.528 0-2.594-.905-2.594-2.27 0-1.35 1.032-2.127 2.94-2.242l2.05-.121v-.581c0-.858-.563-1.324-1.568-1.324-.828 0-1.432.425-1.555 1.074h-1.48c.048-1.364 1.338-2.357 3.083-2.357 1.88 0 3.102.98 3.102 2.499v5.24h-1.521V22.42h-.034zm-1.982.095c-.876 0-1.432-.419-1.432-1.06 0-.662.536-1.047 1.561-1.108l1.826-.115v.595c0 .986-.842 1.688-1.955 1.688zm8.581 1.58c-.658 1.844-1.412 2.452-3.014 2.452-.122 0-.53-.014-.625-.04v-1.264c.102.014.353.027.482.027.727 0 1.134-.303 1.385-1.094l.15-.466-2.784-7.665h1.718l1.935 6.22h.033l1.935-6.22h1.67l-2.885 8.05z" fill="#000"/><rect x="201.5" y=".5" width="55" height="37" rx="3.5" fill="#fff" stroke="#F3F3F3"/><path fill-rule="evenodd" clip-rule="evenodd" d="M227.955 22.912v-4.286h2.356c.971 0 1.788-.3 2.449-.901a2.869 2.869 0 001.023-2.246 2.88 2.88 0 00-1.023-2.234 3.511 3.511 0 00-2.449-.916h-3.782v10.583h1.426zm0-5.586v-3.695h2.391a1.906 1.906 0 011.411.562c.367.34.574.806.574 1.293 0 .487-.207.953-.574 1.293a1.93 1.93 0 01-1.411.547h-2.391zm11.611-1.086c-.61-.537-1.442-.805-2.496-.805-1.354 0-2.377.473-3.068 1.418l1.256.755c.464-.641 1.095-.962 1.891-.962.508-.005 1 .172 1.377.496.376.297.592.738.589 1.204v.31c-.548-.295-1.246-.443-2.092-.443-.992.001-1.786.223-2.38.665-.594.443-.891 1.039-.891 1.788a2.223 2.223 0 00.845 1.773c.564.473 1.264.71 2.101.71.98 0 1.765-.414 2.356-1.242h.062v1.005h1.364V18.45c.001-.935-.304-1.672-.914-2.209zm-3.868 5.342a1.073 1.073 0 01-.474-.886c0-.395.194-.723.585-.993.387-.267.87-.4 1.449-.4.796 0 1.416.169 1.86.507 0 .57-.236 1.068-.708 1.492a2.334 2.334 0 01-1.604.635 1.794 1.794 0 01-1.108-.355zm12.612-5.911l-4.762 10.433h-1.472l1.767-3.65-3.131-6.783h1.55l2.263 5.202h.031l2.202-5.202h1.552z" fill="#5F6368"/><path fill-rule="evenodd" clip-rule="evenodd" d="M222.192 17.703a6.93 6.93 0 00-.11-1.236h-6.015v2.341h3.445a2.806 2.806 0 01-1.274 1.848v1.52h2.056c1.204-1.058 1.898-2.623 1.898-4.473z" fill="#4285F4"/><path fill-rule="evenodd" clip-rule="evenodd" d="M216.067 23.644c1.721 0 3.171-.538 4.227-1.467l-2.056-1.52c-.572.37-1.309.58-2.171.58-1.663 0-3.075-1.068-3.58-2.509h-2.118v1.566c1.083 2.054 3.287 3.35 5.698 3.35z" fill="#34A853"/><path fill-rule="evenodd" clip-rule="evenodd" d="M212.487 18.728a3.481 3.481 0 010-2.327v-1.567h-2.118a5.83 5.83 0 000 5.46l2.118-1.566z" fill="#FBBC04"/><path fill-rule="evenodd" clip-rule="evenodd" d="M216.067 13.891a3.558 3.558 0 012.447.912l1.82-1.735a6.295 6.295 0 00-4.267-1.583c-2.411 0-4.615 1.296-5.698 3.35l2.118 1.566c.505-1.44 1.917-2.51 3.58-2.51z" fill="#EA4335"/><rect x="268.5" y=".5" width="54.035" height="37" rx="3.5" fill="#006FCF" stroke="#F3F3F3"/><path fill-rule="evenodd" clip-rule="evenodd" d="M279.257 27.45v-7.824h8.847l.949 1.159.98-1.159h32.113v7.284s-.84.531-1.811.54h-17.782l-1.07-1.234v1.233h-3.507v-2.105s-.479.294-1.514.294h-1.194v1.811h-5.31l-.948-1.183-.962 1.183h-8.791zm-10.308-13.72l1.99-4.354h3.443l1.129 2.439v-2.44h4.28l.672 1.764.652-1.763h19.209v.886s1.01-.886 2.669-.886l6.233.02 1.11 2.407V9.377h3.581l.986 1.383V9.375h3.614v7.822h-3.614l-.945-1.387v1.387h-5.261l-.529-1.233h-1.415l-.52 1.233h-3.568c-1.428 0-2.341-.868-2.341-.868v.869h-5.38l-1.068-1.234v1.233h-20.004l-.529-1.233h-1.41l-.525 1.233h-2.459V13.73zm.01 2.468l2.685-5.858h2.035l2.682 5.858h-1.786l-.493-1.173h-2.88l-.495 1.173h-1.748zm4.556-2.445l-.878-2.05-.88 2.05h1.758zm3.031 2.444v-5.858l2.484.009 1.445 3.776 1.41-3.785h2.464v5.858h-1.561V11.88l-1.654 4.316h-1.368l-1.659-4.316v4.316h-1.561zm8.871 0v-5.858h5.092v1.31h-3.515v1.002h3.433v1.233h-3.433v1.04h3.515v1.273h-5.092zm5.995 0V10.34h3.473c1.151 0 2.182.668 2.182 1.9 0 1.054-.869 1.733-1.712 1.8l2.053 2.158h-1.907l-1.871-2.081h-.657v2.08h-1.561zm3.345-4.547h-1.784v1.233h1.807c.313 0 .716-.227.716-.616 0-.303-.311-.617-.739-.617zm4.54 4.547h-1.593v-5.858h1.593v5.858zm3.778 0h-.344c-1.664 0-2.674-1.23-2.674-2.905 0-1.716.999-2.953 3.101-2.953h1.724v1.387h-1.787c-.854 0-1.457.625-1.457 1.58 0 1.135.69 1.611 1.684 1.611h.41l-.657 1.28zm.711 0l2.685-5.857h2.036l2.682 5.858h-1.787l-.493-1.173h-2.879l-.496 1.173h-1.748zm4.556-2.444l-.878-2.05-.88 2.05h1.758zm3.029 2.444v-5.858h1.984l2.533 3.68v-3.68h1.561v5.858h-1.92l-2.598-3.777v3.777h-1.56zm-31.047 10.25V20.59h5.093v1.31h-3.516v1.002h3.434v1.233h-3.434v1.04h3.516v1.272h-5.093zm24.953 0V20.59h5.092v1.31h-3.515v1.002h3.416v1.233h-3.416v1.04h3.515v1.272h-5.092zm-19.663 0l2.48-2.892-2.539-2.965h1.966l1.512 1.833 1.517-1.833h1.889l-2.505 2.928 2.484 2.93h-1.966l-1.468-1.805-1.432 1.804h-1.938zm6.989.001v-5.857h3.447c1.415 0 2.241.855 2.241 1.97 0 1.346-1.053 2.037-2.443 2.037h-1.643v1.85h-1.602zm3.332-4.533h-1.73v1.35h1.725c.456 0 .775-.284.775-.675 0-.416-.321-.675-.77-.675zm3.034 4.532V20.59h3.472c1.151 0 2.182.667 2.182 1.9 0 1.054-.869 1.732-1.712 1.8l2.054 2.157h-1.908l-1.871-2.08h-.657v2.08h-1.56zm3.344-4.547h-1.784v1.233h1.807c.313 0 .716-.227.716-.616 0-.303-.311-.617-.739-.617zm8.779 4.547v-1.271h3.123c.462 0 .662-.235.662-.492 0-.246-.199-.495-.662-.495h-1.412c-1.226 0-1.909-.701-1.909-1.754 0-.94.625-1.845 2.448-1.845h3.039l-.657 1.318h-2.628c-.503 0-.657.247-.657.483 0 .243.191.51.575.51h1.478c1.368 0 1.961.729 1.961 1.682 0 1.025-.661 1.864-2.035 1.864h-3.326zm5.499 0v-1.271h3.123c.462 0 .662-.235.662-.492 0-.246-.2-.495-.662-.495h-1.412c-1.226 0-1.91-.701-1.91-1.754 0-.94.626-1.845 2.449-1.845h3.039l-.657 1.318h-2.628c-.503 0-.657.247-.657.483 0 .243.191.51.574.51h1.479c1.367 0 1.961.729 1.961 1.682 0 1.025-.661 1.864-2.036 1.864h-3.325z" fill="#fff"/></svg>